<?xml version="1.0" encoding="utf-8"?>
<!-- Generator: Adobe Illustrator 18.0.0, SVG Export Plug-In . SVG Version: 6.00 Build 0)  -->
<!DOCTYPE svg PUBLIC "-//W3C//DTD SVG 1.1//EN" "http://www.w3.org/Graphics/SVG/1.1/DTD/svg11.dtd">
<svg version="1.1" id="Layer_1" xmlns="http://www.w3.org/2000/svg" xmlns:xlink="http://www.w3.org/1999/xlink" x="0px" y="0px"
	 viewBox="0 0 277.9 47.6" enable-background="new 0 0 277.9 47.6" xml:space="preserve">
<g>
	<polygon fill="#1A3465" points="237.1,0 237.1,10.1 250.8,10.1 250.8,47.6 264,47.6 264,10.1 277.9,10.1 277.9,0 	"/>
	<polygon fill="#6AB1E1" points="29.2,15.2 44.3,47.6 58.5,47.6 36.3,0 	"/>
	<polygon fill="#1A3465" points="0,47.6 14.2,47.6 29.2,15.2 22.1,0 	"/>
	<polygon fill="#457CBE" points="22.1,0 29.2,15.2 36.3,0 	"/>
	<path fill="#1A3465" d="M164.4,18.8h-23.6c-2.4,0-4.4-2-4.4-4.4c0-2.4,2-4.4,4.4-4.4H176V0h-37.6c-8,0-14.4,6.4-14.4,14.4
		c0,8,6.4,14.4,14.4,14.4h23.5c2.4,0,4.4,2,4.4,4.4c0,2.4-2,4.4-4.4,4.4H127v10h37.4c8,0,14.4-6.4,14.4-14.4
		C178.8,25.2,172.4,18.8,164.4,18.8"/>
	<path fill="#1A3465" d="M95.2,28.8h6.5c8,0,14.4-6.5,14.4-14.4c0-8-6.4-14.4-14.4-14.4H64v10.1h35.3c2.4,0,4.4,2,4.4,4.4
		c0,2.4-2,4.4-4.4,4.4H64v28.7h13.2V28.8h2.2l21.5,18.7h0.5h15.5L95.2,28.8z"/>
	<polygon fill="#6AB1E1" points="211.2,15.2 226.3,47.6 240.4,47.6 218.3,0 	"/>
	<polygon fill="#1A3465" points="182,47.6 196.2,47.6 211.2,15.2 204.1,0 	"/>
	<polygon fill="#457CBE" points="204.1,0 211.2,15.2 218.3,0 	"/>
</g>
</svg>
